<svg width="1032" height="387" viewBox="0 0 1032 387" fill="none" xmlns="http://www.w3.org/2000/svg">
<path d="M205.835 214.123V194.164H165.917V174.205H205.835V194.164H225.794V214.123H205.835ZM165.917 273.999V254.04H145.959V194.164H165.917V254.04H205.835V273.999H165.917ZM205.835 254.04V234.082H225.794V254.04H205.835ZM265.711 273.999V174.205H285.67V273.999H265.711ZM325.587 273.999V174.205H385.464V194.164H405.422V214.123H385.464V234.082H345.546V273.999H325.587ZM345.546 214.123H384.665V194.164H345.546V214.123ZM445.34 273.999V174.205H465.299V214.123H505.216V174.205H525.175V273.999H505.216V234.082H465.299V273.999H445.34ZM565.092 273.999V174.205H624.969V194.164H585.051V214.123H624.969V234.082H585.051V254.04H624.969V273.999H565.092ZM664.886 273.999V174.205H724.762V194.164H744.721V214.123H724.762V254.04H744.721V273.999H724.762V254.04H704.804V234.082H684.845V273.999H664.886ZM684.845 214.123H723.964V194.164H684.845V214.123ZM864.474 273.999V254.04H844.515V234.082H824.556V214.123H804.597V194.164H784.639V174.205H804.597V194.164H824.556V214.123H844.515V234.082H864.474V254.04H884.432V273.999H864.474ZM844.515 214.123V194.164H864.474V174.205H884.432V194.164H864.474V214.123H844.515ZM804.597 254.04V234.082H824.556V254.04H804.597ZM784.639 273.999V254.04H804.597V273.999H784.639Z" fill="#00FF09"/>
<g clip-path="url(#clip0_137_2)">
<path d="M141.637 125C139.77 125 138.197 124.36 136.918 123.081C135.639 121.768 135 120.195 135 118.363H174.82C174.82 120.23 174.163 121.802 172.849 123.081C171.536 124.36 169.98 125 168.183 125H141.637ZM141.637 111.727C139.77 111.727 138.197 111.087 136.918 109.808C135.639 108.495 135 106.922 135 105.09H174.82C174.82 106.957 174.163 108.529 172.849 109.808C171.536 111.087 169.98 111.727 168.183 111.727H141.637ZM141.637 98.4534C139.77 98.4534 138.197 97.8139 136.918 96.535C135.639 95.2215 135 93.6488 135 91.8168H174.82C174.82 93.6833 174.163 95.2561 172.849 96.535C171.536 97.8139 169.98 98.4534 168.183 98.4534H141.637ZM198.048 125V98.4534H188.093C186.226 98.4534 184.653 97.8139 183.375 96.535C182.096 95.2215 181.456 93.6488 181.456 91.8168H221.276C221.276 93.6833 220.619 95.2561 219.305 96.535C217.992 97.8139 216.436 98.4534 214.639 98.4534H204.684V125H198.048ZM227.912 125C227.912 123.168 228.552 121.612 229.831 120.333C231.144 119.02 232.717 118.363 234.549 118.363H261.095V111.727H227.912V91.8168H267.732C267.732 93.6833 267.075 95.2561 265.762 96.535C264.448 97.8139 262.893 98.4534 261.095 98.4534H234.549V105.09H267.732V125H227.912ZM274.368 125V105.09H314.188V125H307.551V111.727H281.005V125H274.368ZM281.005 98.4534C279.138 98.4534 277.566 97.8139 276.287 96.535C275.008 95.2215 274.368 93.6488 274.368 91.8168H314.188C314.188 93.6833 313.531 95.2561 312.218 96.535C310.904 97.8139 309.349 98.4534 307.551 98.4534H281.005Z" fill="#00FF09"/>
</g>
<defs>
<clipPath id="clip0_137_2">
<rect x="126" y="75" width="202.994" height="68.9979" rx="6.55202" fill="white"/>
</clipPath>
</defs>
</svg>
