<svg width="5208" height="1842" viewBox="0 0 5208 1842" fill="none" xmlns="http://www.w3.org/2000/svg">
<g clip-path="url(#clip0_194_36)">
<g clip-path="url(#clip1_194_36)">
<path fill-rule="evenodd" clip-rule="evenodd" d="M2576.56 322.003L2575.55 322.334H387.019V772.767L385.422 773.287L386.111 1522.49H387.019V1524.28L387.021 1524.28H4819.64V322.334L4819.64 322.334H2576.56V322.003ZM2576.56 322.334V322.334H2575.55L2575.55 322.334H387.021V772.766L387.019 772.767V1522.49H387.021V1524.28L4819.64 1524.28L4819.64 322.334H2576.56ZM387.021 1522.49V772.766L591.99 705.993V1522.49H591.236H387.021ZM2576.56 322.334V1521.56H2371.5L2372.25 388.752L2575.55 322.334H2576.56ZM920.65 768.935C920.65 768.935 920.691 751.51 920.557 741.001C920.421 730.492 920.557 701.58 920.557 701.58H713.342V1518.08H920.557V1054.08C920.557 889.427 1215.47 896.91 1215.47 1054.08V1518.08H1425.81C1425.81 1518.08 1423.9 1274.85 1423.9 1046.59C1423.9 818.329 1151.9 657.425 920.65 768.935ZM1545.76 956.532C1545.72 774.494 1546.1 702.423 1547.58 701.822L1750.62 702.035L1750.62 1204.87C1750.62 1359.42 2050.88 1363.91 2050.88 1204.87L2050.88 702.35L2252.94 702.561V967.259C2252.94 1122.3 2251.95 1204.87 2251.95 1204.87C2251.95 1624.35 1547.58 1622.85 1547.2 1204.87C1547.2 1204.87 1545.78 1083.24 1545.76 956.532ZM2699.64 701.822C2698.15 702.423 2697.77 774.494 2697.81 956.532C2697.83 1083.24 2699.25 1204.87 2699.25 1204.87C2699.64 1622.85 3404.01 1624.35 3404.01 1204.87C3404.01 1204.87 3404.99 1122.3 3405 967.259V702.561L3202.93 702.35L3202.93 1204.87C3202.93 1363.91 2902.67 1359.42 2902.67 1204.87L2902.67 702.035L2699.64 701.822ZM3726.54 905.771H3735.75H3844.91H3953.3V705.993H3726.54V406.327L3523.38 473.076L3521.93 1138.93C3531.33 1290.86 3626.29 1462.24 3953.3 1522.11V1321.28C3831.35 1304.33 3726.54 1221.25 3726.54 1138.93V905.771ZM4801.49 1031.93C4806.32 1056.98 4808.79 1082.57 4808.79 1108.38H4807.78C4807.95 1145.85 4802.92 1179.18 4793.58 1224.13H4224.46C4239.69 1246.82 4259.37 1266.5 4282.53 1281.87C4322.94 1308.69 4371.47 1320.76 4419.83 1316.03C4468.2 1311.3 4513.42 1290.06 4547.78 1255.92L4688.83 1396.02C4621.84 1462.57 4533.68 1503.99 4439.38 1513.21C4345.09 1522.44 4250.49 1498.9 4171.71 1446.61C4092.93 1394.33 4034.84 1316.52 4007.33 1226.46C3979.83 1136.4 3984.61 1039.65 4020.87 952.702C4057.13 865.752 4122.62 793.98 4206.18 749.615C4289.75 705.249 4386.21 691.036 4479.14 709.397C4572.07 727.758 4655.72 777.557 4715.82 850.308C4758.08 901.451 4786.87 961.712 4800.24 1025.69H4800.59C4800.9 1027.8 4801.2 1029.87 4801.49 1031.93ZM4592.12 1025.69C4584.4 1007.92 4574.17 991.18 4561.63 976.003C4530.8 938.686 4487.89 913.143 4440.23 903.725C4392.56 894.307 4343.08 901.597 4300.22 924.354C4258.26 946.627 4225.19 982.367 4206.37 1025.69H4592.12Z" fill="url(#paint0_linear_194_36)"/>
</g>
</g>
<defs>
<linearGradient id="paint0_linear_194_36" x1="385.422" y1="923.14" x2="4819.64" y2="923.14" gradientUnits="userSpaceOnUse">
<stop stop-color="#46F274"/>
<stop offset="1" stop-color="#18A6ED"/>
</linearGradient>
<clipPath id="clip0_194_36">
<rect width="4434.09" height="1199" fill="white" transform="translate(387 322)"/>
</clipPath>
<clipPath id="clip1_194_36">
<rect width="4433.44" height="1202.52" fill="white" transform="translate(387 322)"/>
</clipPath>
</defs>
</svg>
