<svg width="4000" height="4000" viewBox="0 0 4000 4000" fill="none" xmlns="http://www.w3.org/2000/svg">
<g clip-path="url(#clip0_169_18)">
<rect width="4000" height="4000" fill="#000D12"/>
<g opacity="0.6" filter="url(#filter0_f_169_18)">
<ellipse cx="1999.5" cy="1999.5" rx="1474.5" ry="1541.5" fill="url(#paint0_linear_169_18)"/>
</g>
<g clip-path="url(#clip1_169_18)">
<g clip-path="url(#clip2_169_18)">
<path fill-rule="evenodd" clip-rule="evenodd" d="M1981.3 1594L1980.61 1594.23H493V1594.23H1980.61L1842.42 1639.37L1841.91 2409.38H1981.3V1594.23H3506V1594.23H1981.3V1594ZM493 2410.01H631.805H632.317V1855.01L493 1900.4L491.906 1900.75L492.374 2410.01H493ZM1981.3 1594.23H1980.61V1594.23H1981.3V1594.23ZM855.721 1897.8C855.721 1897.8 855.75 1885.95 855.658 1878.81C855.566 1871.66 855.658 1852.01 855.658 1852.01H714.807V2407.01H855.658V2091.62C855.658 1979.7 1056.12 1984.78 1056.12 2091.62V2407.01H1199.1C1199.1 2407.01 1197.8 2241.68 1197.8 2086.53C1197.8 1931.37 1012.91 1822 855.721 1897.8ZM1280.62 2025.31C1280.6 1901.57 1280.85 1852.59 1281.86 1852.18L1419.88 1852.32L1419.88 2194.12C1419.88 2299.17 1623.97 2302.22 1623.97 2194.12L1623.97 1852.54L1761.32 1852.68V2032.6C1761.32 2137.99 1760.65 2194.12 1760.65 2194.12C1760.65 2479.25 1281.87 2478.23 1281.6 2194.12C1281.6 2194.12 1280.64 2111.44 1280.62 2025.31ZM2064.95 1852.18C2063.94 1852.59 2063.69 1901.57 2063.71 2025.31C2063.73 2111.44 2064.69 2194.12 2064.69 2194.12C2064.95 2478.23 2543.74 2479.25 2543.74 2194.12C2543.74 2194.12 2544.41 2137.99 2544.41 2032.6V1852.68L2407.06 1852.54L2407.06 2194.12C2407.06 2302.22 2202.97 2299.17 2202.97 2194.12L2202.96 1852.32L2064.95 1852.18ZM2762.98 1990.81H2769.24H2843.44H2917.12V1855.01H2762.98V1651.32L2624.89 1696.69L2623.9 2149.3C2630.29 2252.56 2694.84 2369.06 2917.12 2409.75V2273.24C2834.22 2261.72 2762.98 2205.25 2762.98 2149.3V1990.81ZM3493.64 2076.49C3496.93 2093.54 3498.61 2110.96 3498.61 2128.52H3497.92C3498.04 2154 3494.62 2176.66 3488.27 2207.21H3101.43C3111.78 2222.63 3125.16 2236.01 3140.9 2246.46C3168.37 2264.69 3201.35 2272.89 3234.23 2269.68C3267.11 2266.46 3297.84 2252.02 3321.2 2228.82L3417.08 2324.05C3371.54 2369.28 3311.61 2397.44 3247.52 2403.71C3183.42 2409.98 3119.12 2393.98 3065.57 2358.44C3012.02 2322.9 2972.54 2270.01 2953.84 2208.79C2935.14 2147.57 2938.4 2081.81 2963.04 2022.71C2987.69 1963.61 3032.21 1914.82 3089.01 1884.66C3145.81 1854.51 3211.38 1844.85 3274.54 1857.33C3337.71 1869.81 3394.57 1903.66 3435.42 1953.11C3464.15 1987.87 3483.71 2028.83 3492.8 2072.32H3493.04C3493.14 2073.04 3493.25 2073.75 3493.35 2074.46C3493.45 2075.14 3493.55 2075.82 3493.64 2076.49ZM3351.34 2072.32C3346.09 2060.24 3339.14 2048.86 3330.61 2038.55C3309.66 2013.18 3280.49 1995.82 3248.09 1989.42C3215.69 1983.02 3182.06 1987.97 3152.92 2003.44C3124.41 2018.58 3101.93 2042.87 3089.13 2072.32H3351.34Z" fill="url(#paint1_linear_169_18)"/>
</g>
</g>
</g>
<defs>
<filter id="filter0_f_169_18" x="-175" y="-242" width="4349" height="4483" filterUnits="userSpaceOnUse" color-interpolation-filters="sRGB">
<feFlood flood-opacity="0" result="BackgroundImageFix"/>
<feBlend mode="normal" in="SourceGraphic" in2="BackgroundImageFix" result="shape"/>
<feGaussianBlur stdDeviation="350" result="effect1_foregroundBlur_169_18"/>
</filter>
<linearGradient id="paint0_linear_169_18" x1="1088.96" y1="789.467" x2="2811.42" y2="3341.22" gradientUnits="userSpaceOnUse">
<stop stop-color="#440E83"/>
<stop offset="0.525" stop-color="#21134D"/>
<stop offset="0.76" stop-color="#013B5B"/>
</linearGradient>
<linearGradient id="paint1_linear_169_18" x1="491.906" y1="2002.01" x2="3506" y2="2002.01" gradientUnits="userSpaceOnUse">
<stop stop-color="#46F274"/>
<stop offset="1" stop-color="#18A6ED"/>
</linearGradient>
<clipPath id="clip0_169_18">
<rect width="4000" height="4000" fill="white"/>
</clipPath>
<clipPath id="clip1_169_18">
<rect width="3014" height="811" fill="white" transform="translate(493 1594)"/>
</clipPath>
<clipPath id="clip2_169_18">
<rect width="3013.56" height="817.394" fill="white" transform="translate(493 1594)"/>
</clipPath>
</defs>
</svg>
